<svg xmlns="http://www.w3.org/2000/svg" xmlns:xlink="http://www.w3.org/1999/xlink" width="52" height="80" viewBox="0 0 52 80">
    <defs>
        <path id="a" d="M0 0h100v80H0z"/>
    </defs>
    <g fill="none" fill-rule="evenodd" transform="translate(-23)">
        <mask id="b" fill="#fff">
            <use xlink:href="#a"/>
        </mask>
        <g mask="url(#b)">
            <g transform="translate(23)">
                <path fill="#5078FA" d="M1.025 12.77h6.546v57.858H44.84V12.764h5.677v66.022H1.432z"/>
                <path fill="#464646" fill-rule="nonzero" d="M16.296 35.556l6.025-4.642 6.321 6.913c.198.198.494.296.691.296.198 0 .395-.098.593-.197l6.123-4.938v1.284c0 .592.395.987.988.987s.988-.395.988-.987v-3.655c0-.592-.395-.987-.988-.987H32.79c-.592 0-.988.395-.988.987 0 .593.396.988.988.988h1.975l-5.234 4.247-6.321-6.914c-.296-.395-.889-.395-1.284-.098l-6.815 5.234c-.395.296-.494.988-.197 1.383.395.395.987.494 1.382.099z"/>
                <circle cx="25.877" cy="6.815" r="1.481" fill="#464646" fill-rule="nonzero"/>
                <path fill="#464646" fill-rule="nonzero" d="M.988 79.901h49.777c.593 0 .988-.395.988-.987v-66.47c0-.592-.395-.987-.988-.987H40.494v-.988c0-2.568-2.37-4.74-5.235-4.74h-2.666C32.099 2.468 29.333 0 25.877 0c-3.457 0-6.223 2.47-6.717 5.728h-2.765c-2.864 0-5.235 2.074-5.235 4.741v.988H.988c-.593 0-.988.395-.988.987v66.47c0 .493.494.987.988.987zM13.235 10.47c0-1.481 1.481-2.765 3.259-2.765h3.654c.593 0 .988-.395.988-.988 0-2.667 2.173-4.74 4.74-4.74 2.667 0 4.741 2.172 4.741 4.74 0 .593.395.988.988.988h3.654c1.778 0 3.26 1.185 3.26 2.765v4.938H13.235V10.47zm-.988 6.914h27.26c.592 0 .987-.395.987-.988v-2.963h2.963v56.593H8.297V13.432h2.863v2.963c.1.593.494.988 1.087.988zm-10.272-3.95h4.346v57.58c0 .592.395.987.988.987h37.135c.593 0 .988-.395.988-.988v-57.58h4.346v64.494H1.975V13.432z"/>
                <path fill="#464646" fill-rule="nonzero" d="M13.432 52.247H38.42c.592 0 .987-.395.987-.988 0-.592-.395-.987-.987-.987H13.432c-.592 0-.988.395-.988.987 0 .593.396.988.988.988zM13.432 60.543H38.42c.592 0 .987-.395.987-.987 0-.593-.395-.988-.987-.988H13.432c-.592 0-.988.395-.988.988 0 .592.396.987.988.987z"/>
            </g>
        </g>
    </g>
</svg>
