<svg xmlns="http://www.w3.org/2000/svg" xmlns:xlink="http://www.w3.org/1999/xlink" width="97" height="80" viewBox="0 0 97 80">
    <defs>
        <path id="a" d="M0 0h100v80H0z"/>
    </defs>
    <g fill="none" fill-rule="evenodd" transform="translate(-1)">
        <mask id="b" fill="#fff">
            <use xlink:href="#a"/>
        </mask>
        <g mask="url(#b)">
            <path fill="#5078FA" d="M10 18h5v6h-5zM70 18h5v6h-5zM10 49h5v6h-5zM70 49h5v6h-5zM10 33h5v6h-5zM70 33h5v6h-5zM10 64h5v6h-5zM70 64h5v6h-5zM24 18h5v6h-5zM84 18h5v6h-5zM24 49h5v6h-5zM84 49h5v6h-5zM24 33h5v6h-5zM84 33h5v6h-5zM24 64h5v6h-5zM84 64h5v6h-5z"/>
            <path fill="#464646" fill-rule="nonzero" d="M15.996 31.484H9.652c-.777 0-1.295.516-1.295 1.29v6.968c0 .774.518 1.29 1.295 1.29h6.344c.777 0 1.295-.516 1.295-1.29v-6.968c0-.645-.648-1.29-1.295-1.29zM14.7 38.58h-3.755v-4.387h3.755v4.387zM29.332 31.484h-6.345c-.776 0-1.294.516-1.294 1.29v6.968c0 .774.518 1.29 1.294 1.29h6.345c.776 0 1.294-.516 1.294-1.29v-6.968c0-.645-.647-1.29-1.294-1.29zm-1.295 7.097h-3.755v-4.387h3.755v4.387zM15.996 46.968H9.652c-.777 0-1.295.516-1.295 1.29v6.968c0 .774.518 1.29 1.295 1.29h6.344c.777 0 1.295-.516 1.295-1.29v-6.968c0-.645-.648-1.29-1.295-1.29zM14.7 54.065h-3.755v-4.388h3.755v4.388zM29.332 46.968h-6.345c-.776 0-1.294.516-1.294 1.29v6.968c0 .774.518 1.29 1.294 1.29h6.345c.776 0 1.294-.516 1.294-1.29v-6.968c0-.645-.647-1.29-1.294-1.29zm-1.295 7.097h-3.755v-4.388h3.755v4.388zM15.996 62.065H9.652c-.777 0-1.295.516-1.295 1.29v6.968c0 .774.518 1.29 1.295 1.29h6.344c.777 0 1.295-.516 1.295-1.29v-6.968c0-.645-.648-1.29-1.295-1.29zM14.7 69.16h-3.755v-4.387h3.755v4.387zM29.332 62.065h-6.345c-.776 0-1.294.516-1.294 1.29v6.968c0 .774.518 1.29 1.294 1.29h6.345c.776 0 1.294-.516 1.294-1.29v-6.968c0-.645-.647-1.29-1.294-1.29zm-1.295 7.096h-3.755v-4.387h3.755v4.387zM15.996 16.129H9.652c-.777 0-1.295.516-1.295 1.29v6.968c0 .774.518 1.29 1.295 1.29h6.344c.777 0 1.295-.516 1.295-1.29V17.42c0-.774-.648-1.29-1.295-1.29zM14.7 23.097h-3.755V18.71h3.755v4.387zM29.332 16.129h-6.345c-.776 0-1.294.516-1.294 1.29v6.968c0 .774.518 1.29 1.294 1.29h6.345c.776 0 1.294-.516 1.294-1.29V17.42c0-.774-.647-1.29-1.294-1.29zm-1.295 6.968h-3.755V18.71h3.755v4.387zM69.598 41.161h6.344c.777 0 1.295-.516 1.295-1.29v-6.968c0-.774-.518-1.29-1.295-1.29h-6.344c-.777 0-1.295.516-1.295 1.29v6.968c0 .645.518 1.29 1.295 1.29zm1.295-7.096h3.754v4.387h-3.754v-4.387zM82.804 41.161h6.344c.777 0 1.295-.516 1.295-1.29v-6.968c0-.774-.518-1.29-1.295-1.29h-6.344c-.777 0-1.295.516-1.295 1.29v6.968c0 .645.648 1.29 1.295 1.29zm1.295-7.096h3.755v4.387h-3.755v-4.387zM69.598 56.645h6.344c.777 0 1.295-.516 1.295-1.29v-6.968c0-.774-.518-1.29-1.295-1.29h-6.344c-.777 0-1.295.516-1.295 1.29v6.968c0 .645.518 1.29 1.295 1.29zm1.295-7.097h3.754v4.387h-3.754v-4.387zM82.804 56.645h6.344c.777 0 1.295-.516 1.295-1.29v-6.968c0-.774-.518-1.29-1.295-1.29h-6.344c-.777 0-1.295.516-1.295 1.29v6.968c0 .645.648 1.29 1.295 1.29zm1.295-7.097h3.755v4.387h-3.755v-4.387zM69.598 71.742h6.344c.777 0 1.295-.516 1.295-1.29v-6.968c0-.774-.518-1.29-1.295-1.29h-6.344c-.777 0-1.295.516-1.295 1.29v6.968c0 .645.518 1.29 1.295 1.29zm1.295-7.097h3.754v4.387h-3.754v-4.387zM82.804 71.742h6.344c.777 0 1.295-.516 1.295-1.29v-6.968c0-.774-.518-1.29-1.295-1.29h-6.344c-.777 0-1.295.516-1.295 1.29v6.968c0 .645.648 1.29 1.295 1.29zm1.295-7.097h3.755v4.387h-3.755v-4.387zM69.598 25.677h6.344c.777 0 1.295-.516 1.295-1.29V17.42c0-.774-.518-1.29-1.295-1.29h-6.344c-.777 0-1.295.516-1.295 1.29v6.968c0 .774.518 1.29 1.295 1.29zm1.295-6.967h3.754v4.387h-3.754V18.71zM82.804 25.677h6.344c.777 0 1.295-.516 1.295-1.29V17.42c0-.774-.518-1.29-1.295-1.29h-6.344c-.777 0-1.295.516-1.295 1.29v6.968c0 .774.648 1.29 1.295 1.29zM84.1 18.71h3.755v4.387h-3.755V18.71z"/>
            <path fill="#464646" fill-rule="nonzero" d="M2.401 79.484H96.4c.777 0 1.295-.516 1.295-1.29v-68.13c0-.774-.518-1.29-1.295-1.29H63.642V1.935c0-.774-.518-1.29-1.295-1.29H36.453c-.777 0-1.295.516-1.295 1.29v6.84H2.4c-.777 0-1.295.515-1.295 1.29v68.129c0 .645.518 1.29 1.295 1.29zm58.652-8.387h-5.18V55.484c0-.774-.517-1.29-1.294-1.29H44.092c-.777 0-1.295.516-1.295 1.29v15.613h-5.18V37.548h23.306v33.549h.13zm-7.64 0h-7.897V56.774h7.898v14.323zm-15.666 2.58h23.306v3.226H37.747v-3.226zm57.357-62.322v65.548H63.642V11.355h31.462zM61.053 3.097V34.968H37.747V3.097h23.306zM3.696 11.355h31.462v65.548H3.696V11.355z"/>
            <path fill="#464646" fill-rule="nonzero" d="M47.458 19.871v4.903c-.647-.516-1.165-1.29-1.165-2.064 0-.775-.518-1.29-1.295-1.29-.777 0-1.295.515-1.295 1.29 0 2.322 1.554 4.258 3.755 4.903v.645c0 .774.518 1.29 1.295 1.29.776 0 1.294-.516 1.294-1.29v-.516a5.128 5.128 0 0 0 4.014-5.032 5.128 5.128 0 0 0-4.014-5.033v-4.903c.777.387 1.295 1.29 1.295 2.194 0 .774.518 1.29 1.295 1.29.777 0 1.295-.516 1.295-1.29 0-2.452-1.684-4.387-3.885-4.903v-.517c0-.774-.518-1.29-1.294-1.29-.777 0-1.295.516-1.295 1.29v.517c-2.201.516-3.884 2.58-3.884 4.903 0 2.322 1.683 4.258 3.884 4.903zm4.014 2.71a2.66 2.66 0 0 1-1.425 2.322v-4.645c.777.516 1.425 1.29 1.425 2.323zm-4.014-9.936v4.387c-.777-.387-1.295-1.29-1.295-2.193 0-.904.518-1.678 1.295-2.194z"/>
        </g>
    </g>
</svg>
