<svg xmlns="http://www.w3.org/2000/svg" xmlns:xlink="http://www.w3.org/1999/xlink" width="100" height="63" viewBox="0 0 100 63">
    <defs>
        <path id="a" d="M0 0h100v80H0z"/>
    </defs>
    <g fill="none" fill-rule="evenodd" transform="translate(0 -8)">
        <mask id="b" fill="#fff">
            <use xlink:href="#a"/>
        </mask>
        <g mask="url(#b)">
            <g transform="translate(0 8)">
                <path fill="#464646" fill-rule="nonzero" d="M79.2 45.955a.846.846 0 0 0 .446-.738c0-.47-.399-.852-.89-.852s-.89.381-.89.852c0 .315.18.59.445.738v.97c0 .23.2.422.445.422a.433.433 0 0 0 .445-.422v-.97zm-5.782-3.295c0-.47.399-.851.892-.851h8.892c.493 0 .892.38.892.85v6.393c0 .47-.399.851-.892.851H74.31c-.493 0-.892-.38-.892-.85V42.66zm9.784 6.391c.002 0 .002-6.39.002-6.39H74.31c-.002 0-.003 6.39-.003 6.39h8.895zm-8.45-7.242c0-2.118 1.793-3.834 4.004-3.834 2.211 0 4.003 1.716 4.003 3.834h-.89c0-1.647-1.393-2.982-3.113-2.982s-3.114 1.335-3.114 2.982h-.89z"/>
                <circle cx="78.481" cy="44.304" r="11.392" stroke="#464646" stroke-width="1.75"/>
                <path fill="#5078FA" d="M2.532 11.392h96.203V24.05H2.532z"/>
                <path fill="#464646" fill-rule="nonzero" d="M10.127 62.658h80.126c5.317 0 9.747-4.304 9.747-9.747V9.747C100 4.43 95.696 0 90.253 0H10.127C4.81 0 .38 4.304.38 9.747v43.291c.126 5.316 4.43 9.62 9.747 9.62zm87.341-40.253H3.038v-8.86h94.43v8.86zM10.127 2.532h80.126c3.924 0 7.215 3.164 7.215 7.215v1.392H3.038V9.747c0-4.05 3.165-7.215 7.089-7.215zM3.038 24.937h94.43V52.91c0 3.924-3.164 7.216-7.215 7.216H10.127c-3.924 0-7.216-3.165-7.216-7.216V24.937h.127z"/>
                <path fill="#464646" fill-rule="nonzero" d="M14.43 45.95h4.304c.76 0 1.266-.507 1.266-1.266 0-.76-.506-1.266-1.266-1.266H14.43c-.76 0-1.265.506-1.265 1.266 0 .759.506 1.265 1.265 1.265zM25.063 45.95h4.304c.76 0 1.266-.507 1.266-1.266 0-.76-.506-1.266-1.266-1.266h-4.304c-.76 0-1.266.506-1.266 1.266 0 .759.507 1.265 1.266 1.265zM35.696 45.95H40c.76 0 1.266-.507 1.266-1.266 0-.76-.507-1.266-1.266-1.266h-4.304c-.76 0-1.266.506-1.266 1.266 0 .759.507 1.265 1.266 1.265zM46.33 45.95h4.303c.76 0 1.266-.507 1.266-1.266 0-.76-.507-1.266-1.266-1.266h-4.304c-.76 0-1.266.506-1.266 1.266 0 .759.507 1.265 1.266 1.265z"/>
            </g>
        </g>
    </g>
</svg>
